<?xml version="1.0" encoding="UTF-8" standalone="no"?>
<!-- Generator: Avocode 1.0.1 - http://avocode.com -->
<svg xmlns="http://www.w3.org/2000/svg" xmlns:xlink="http://www.w3.org/1999/xlink" width="24" height="24" viewBox="0 0 24 24">
    <desc>Created with Avocode</desc>
    <path d="M19.62,2.73C19.62,2.73,19.62,2.73,19.62,2.73C19.62,2.73,19.62,2.73,19.62,2.73C19.62,2.73,19.62,2.73,19.62,2.73C19.62,2.73,19.62,2.73,19.62,2.73M3.87,3.17C3.87,3.17,4.66,2.44,3.87,3.17C3.08,3.91,2.38,4.75,1.81,5.67C2.35,4.84,3,4.08,3.73,3.41C3.505276073619636,3.7683435582822025,3.358018743648618,4.182020399713938,3.480981595092029,4.57006134969324C3.4752028604764984,4.089818088750036,3.633521472392641,3.578552147239259,3.91,3.14C4.2,2.68,3.91,3.14,3.91,3.14C3.91,3.14,3.9,3.14,3.9,3.14C3.9,3.15,3.9,3.15,3.9,3.15C3.9,3.15,3.9,3.15,3.9,3.15C3.89,3.15,3.89,3.15,3.89,3.15C3.89,3.15,3.89,3.16,3.89,3.16C3.89,3.16,3.89,3.16,3.89,3.16C3.88,3.16,3.88,3.16,3.88,3.16C3.88,3.16,3.88,3.17,3.87,3.17C3.87,3.17,3.87,3.17,3.87,3.17C3.87,3.17,3.87,3.17,3.87,3.17C3.87,3.17,3.87,3.17,3.87,3.17C3.08,3.91,2.38,4.75,1.81,5.67C2.35,4.84,3,4.08,3.73,3.41C3.36,4,3.2,4.74,3.32,5.32C3.43,6.44,3.73,7.48,4.07,8.54C4.76,10.64,5.62,12.55,6.27,14.27C6.87,15.98,7.19,17.65,7.36,19.03C7.6,20.93,7.45,22.35,7.33,23.06C7.36,23.07,7.4,23.09,7.44,23.1C7.44,23.1,7.44,23.1,7.44,23.1C7.44,23.1,7.44,23.1,7.44,23.1C7.52,22.76,7.66,21.93,7.66,20.74C7.66,20.16,7.63,19.5,7.53,18.76C7.36,17.38,7.04,15.71,6.45,14C5.79,12.28,4.93,10.37,4.25,8.27C3.91,7.21,3.6,6.17,3.5,5.05C3.4713987730061353,4.926061349693253,3.46097599458015,4.7930334751025665,3.461865030674847,4.65911656441718C3.270479912680191,4.899469848319468,3.2784785276073616,5.119312883435582,3.32,5.32C3.43,6.44,3.73,7.48,4.07,8.54C4.76,10.64,5.62,12.55,6.27,14.27C6.87,15.98,7.19,17.65,7.36,19.03C7.6,20.93,7.45,22.35,7.33,23.06C7.36,23.07,7.4,23.09,7.44,23.1C3.07,21.3,0,17.01,0,12C0,8.51,1.49,5.37,3.87,3.17M3.480981595092029,4.57006134969324C3.4558008205050994,4.602101546915572,3.4336659706801114,4.633896154352816,3.461865030674847,4.65911656441718C3.270479912680191,4.899469848319468,3.2784785276073616,5.119312883435582,3.32,5.32C3.43,6.44,3.73,7.48,4.07,8.54C4.76,10.64,5.62,12.55,6.27,14.27C6.87,15.98,7.19,17.65,7.36,19.03C7.6,20.93,7.45,22.35,7.33,23.06C7.36,23.07,7.4,23.09,7.44,23.1C3.07,21.3,0,17.01,0,12C0,8.51,1.49,5.37,3.87,3.17C3.87,3.17,4.66,2.44,3.87,3.17C3.08,3.91,2.38,4.75,1.81,5.67C2.35,4.84,3,4.08,3.73,3.41C3.505276073619636,3.7683435582822025,3.358018743648618,4.182020399713938,3.480981595092029,4.57006134969324M7.52,22.99C7.52,22.99,7.54,22.94,7.52,22.99C7.51,23.04,7.5,23.09,7.49,23.12C7.49,23.12,7.48,23.12,7.47,23.12C7.49,23.08,7.51,23.04,7.52,22.99" fill="#c2e078" />
</svg>